<svg xmlns="http://www.w3.org/2000/svg" width="64" height="64" viewBox="0 0 24 24" fill="#3b82f6" stroke="#3b82f6" stroke-width="2" stroke-linecap="round" stroke-linejoin="round"><path d="M11 4c0 1.1-.9 2-2 2s-2-.9-2-2 .9-2 2-2 2 .9 2 2z"/><path d="M17 8c0 1.1-.9 2-2 2s-2-.9-2-2 .9-2 2-2 2 .9 2 2z"/><path d="M21 15c0 1.1-.9 2-2 2s-2-.9-2-2 .9-2 2-2 2 .9 2 2z"/><path d="M5 16c0 1.1-.9 2-2 2s-2-.9-2-2 .9-2 2-2 2 .9 2 2z"/><path d="M11 11.5c-1.5 0-3 1-3.5 2.5-1 4 0 6.5 4.5 6.5s5.5-2.5 4.5-6.5c-.5-1.5-2-2.5-3.5-2.5H11z"/></svg>
